# xmcd CD database file
#
# Track frame offsets:
#	150
#	26622
#	56211
#	75932
#	109351
#	134152
#	158475
#	185794
#	208433
#	231099
#	258959
#
# Disc length: 3962 seconds
#
# Revision: 3
# Processed by: cddbd v1.5.2PL0 Copyright (c) Steve Scherf et al.
# Submitted via: CDex 1.51
#
DISCID=9e0f780b
DTITLE=Lew Del Gatto and Bob Keller - To Al and Zoot, with Love
DYEAR=2008
DGENRE=Jazz
TTITLE0=Doodle Oodle
TTITLE1=Blue Hodge
TTITLE2=Halley`s Comet
TTITLE3=Saratoga Hunch
TTITLE4=The Wailing Boat
TTITLE5=P-Town
TTITLE6=Mama Flosie
TTITLE7=Morning Fun
TTITLE8=Nearness of You/I Got it Bad
TTITLE9=Red Door
TTITLE10=Lover Come Back to Me
EXTD=YEAR: 2008
EXTT0=
EXTT1=
EXTT2=
EXTT3=
EXTT4=
EXTT5=
EXTT6=
EXTT7=
EXTT8=
EXTT9=
EXTT10=
PLAYORDER=
